<?xml version="1.0" standalone="no"?><!DOCTYPE svg PUBLIC "-//W3C//DTD SVG 1.1//EN" "http://www.w3.org/Graphics/SVG/1.1/DTD/svg11.dtd"><svg t="1585235650831" class="icon" viewBox="0 0 1024 1024" version="1.1" xmlns="http://www.w3.org/2000/svg" p-id="3706" xmlns:xlink="http://www.w3.org/1999/xlink" width="300" height="300"><defs><style type="text/css"></style></defs><path d="M610.304 555.008a241.208889 241.208889 0 1 0-182.044444 0A364.088889 364.088889 0 0 0 153.6 905.898667a22.755556 22.755556 0 1 0 47.331556 0 318.577778 318.577778 0 0 1 637.155555 0 22.755556 22.755556 0 1 0 47.331556 0 364.088889 364.088889 0 0 0-275.114667-350.890667z m-284.444444-221.411556a193.877333 193.877333 0 1 1 193.877333 191.829334 192.967111 192.967111 0 0 1-193.877333-191.829334z" p-id="3707" fill="#d81e06"></path><path d="M665.827556 333.596444a22.755556 22.755556 0 1 0-47.331556 0 98.986667 98.986667 0 0 1-197.973333 0 22.755556 22.755556 0 1 0-47.331556 0 146.318222 146.318222 0 0 0 292.636445 0zM823.296 541.354667a177.493333 177.493333 0 0 0-21.390222-324.266667 22.755556 22.755556 0 0 0-16.384 44.373333 130.844444 130.844444 0 0 1-45.511111 253.724445 22.755556 22.755556 0 0 0-22.755556 22.755555 22.755556 22.755556 0 0 0 1.365333 6.371556 22.755556 22.755556 0 0 0-1.365333 6.371555 22.755556 22.755556 0 0 0 22.755556 22.755556 221.184 221.184 0 0 1 222.094222 219.591111 22.755556 22.755556 0 1 0 47.331555 0 267.605333 267.605333 0 0 0-186.140444-251.676444zM308.565333 551.367111a22.755556 22.755556 0 0 0-1.365333-6.371555 22.755556 22.755556 0 0 0 1.365333-6.371556 22.755556 22.755556 0 0 0-22.755555-22.755556 130.844444 130.844444 0 0 1-45.511111-253.724444 22.755556 22.755556 0 1 0-16.384-44.373333 177.493333 177.493333 0 0 0-21.390223 324.266666 267.605333 267.605333 0 0 0-186.823111 252.586667 22.755556 22.755556 0 1 0 47.331556 0 221.184 221.184 0 0 1 222.094222-219.591111 22.755556 22.755556 0 0 0 23.438222-23.665778z" p-id="3708" fill="#d81e06"></path></svg>