<?xml version="1.0" standalone="no"?><!DOCTYPE svg PUBLIC "-//W3C//DTD SVG 1.1//EN" "http://www.w3.org/Graphics/SVG/1.1/DTD/svg11.dtd"><svg t="1585066515327" class="icon" viewBox="0 0 1024 1024" version="1.1" xmlns="http://www.w3.org/2000/svg" p-id="2348" xmlns:xlink="http://www.w3.org/1999/xlink" width="300" height="300"><defs><style type="text/css"></style></defs><path d="M462.56152344 759.19238281a24.64353562 24.64353562 0 0 1-17.47959138-7.24041938l-123.5961914-123.59619141a24.71923828 24.71923828 0 0 1 34.95918274-34.95763779L462.56152344 699.51473427l204.99355315-204.99355317a24.71923828 24.71923828 0 0 1 34.95918275 34.9576378l-222.47314453 222.47314453A24.64353562 24.64353562 0 0 1 462.56152344 759.19238281z" p-id="2349" fill="#e36713"></path><path d="M808.63085938 882.78857422H215.36914062a74.24191475 74.24191475 0 0 1-74.15771484-74.15771484V264.80761719a74.24191475 74.24191475 0 0 1 74.15771485-74.15771485h49.44156645a24.71923828 24.71923828 0 0 1 0 49.43847657H215.36914062a24.74704743 24.74704743 0 0 0-24.71923828 24.71923828v543.82324219a24.74704743 24.74704743 0 0 0 24.71923829 24.71923828h593.26171875a24.74704743 24.74704743 0 0 0 24.71923828-24.71923828V264.80761719a24.74704743 24.74704743 0 0 0-24.71923828-24.71923828h-49.43693161a24.71923828 24.71923828 0 0 1 0-49.43847657H808.63085938a74.24191475 74.24191475 0 0 1 74.15771484 74.15771485v543.82324219a74.24191475 74.24191475 0 0 1-74.15771485 74.15771484z" p-id="2350" fill="#e36713"></path><path d="M610.87695313 240.08837891H413.12304687a24.71923828 24.71923828 0 0 1 1e-8-49.43847657h197.75390624a24.71923828 24.71923828 0 0 1 1e-8 49.43847657z m74.15771484 49.43847656a24.71923828 24.71923828 0 0 1-24.71923828-24.71923828V165.93066406a24.71923828 24.71923828 0 0 1 49.43847656 0v98.87695313a24.71923828 24.71923828 0 0 1-24.71923828 24.71923828z m-346.06933594 0a24.71923828 24.71923828 0 0 1-24.71923828-24.71923828V165.93066406a24.71923828 24.71923828 0 0 1 49.43847656 0v98.87695313a24.71923828 24.71923828 0 0 1-24.71923828 24.71923828z m519.10400391 123.5961914H165.93066406a24.71923828 24.71923828 0 0 1 0-49.43847656h692.13867188a24.71923828 24.71923828 0 0 1 0 49.43847656z" p-id="2351" fill="#e36713"></path></svg>