<?xml version="1.0" standalone="no"?><!DOCTYPE svg PUBLIC "-//W3C//DTD SVG 1.1//EN" "http://www.w3.org/Graphics/SVG/1.1/DTD/svg11.dtd"><svg t="1584971070528" class="icon" viewBox="0 0 1024 1024" version="1.1" xmlns="http://www.w3.org/2000/svg" p-id="2962" xmlns:xlink="http://www.w3.org/1999/xlink" width="300" height="300"><defs><style type="text/css"></style></defs><path d="M700.462814 80.190367 322.790172 80.190367c-44.511773 0-80.929194 36.418444-80.929194 80.930217l0 701.393511c0 44.511773 36.417421 80.930217 80.929194 80.930217l377.672642 0c44.512796 0 80.930217-36.418444 80.930217-80.930217L781.393032 161.120584C781.393032 116.608811 744.975611 80.190367 700.462814 80.190367zM437.146687 121.180943l148.95859 0c7.355525 0 13.31833 5.962805 13.31833 13.31833 0 7.355525-5.961782 13.317307-13.31833 13.317307L437.146687 147.81658c-7.355525 0-13.317307-5.961782-13.317307-13.317307C423.82938 127.142725 429.791162 121.180943 437.146687 121.180943zM511.627005 889.491517c-29.797653 0-53.952796-24.157189-53.952796-53.954843 0-29.797653 24.155143-53.951773 53.952796-53.951773 29.79663 0 53.954843 24.15412 53.954843 53.951773C565.580824 865.333304 541.423635 889.491517 511.627005 889.491517zM727.440236 727.632105 295.813774 727.632105 295.813774 188.098006l431.626461 0L727.440236 727.632105z" p-id="2963"></path></svg>